<svg xmlns="http://www.w3.org/2000/svg" fill="none" viewBox="0 6.9 31.8 17.2">
<path d="M26.2 23.1C27.0836 23.1 27.8 22.3837 27.8 21.5C27.8 20.6163 27.0836 19.9 26.2 19.9C25.3163 19.9 24.6 20.6163 24.6 21.5C24.6 22.3837 25.3163 23.1 26.2 23.1Z" stroke="#8C99B2" stroke-width="2" stroke-miterlimit="10" stroke-linecap="round" stroke-linejoin="round"/>
<path d="M5.89999 23.1C6.78364 23.1 7.49999 22.3837 7.49999 21.5C7.49999 20.6163 6.78364 19.9 5.89999 19.9C5.01633 19.9 4.29999 20.6163 4.29999 21.5C4.29999 22.3837 5.01633 23.1 5.89999 23.1Z" stroke="#8C99B2" stroke-width="2" stroke-miterlimit="10" stroke-linecap="round" stroke-linejoin="round"/>
<path d="M18 7.9H1V17.1H18V7.9Z" stroke="#8C99B2" stroke-width="2" stroke-miterlimit="10" stroke-linecap="round" stroke-linejoin="round"/>
<path d="M30.8 20.5V15.6C30.8 14.5 30.5 13.3 29.8 12.4L28.3 10H24.4L21 8.3V19.9V20.5H10.4" stroke="#8C99B2" stroke-width="2" stroke-miterlimit="10" stroke-linecap="round" stroke-linejoin="round"/>
<path d="M30.2 17.1L25.3 15.3L24.4 10" stroke="#8C99B2" stroke-width="2" stroke-miterlimit="10" stroke-linecap="round" stroke-linejoin="round"/>
</svg>